<?xml version="1.0" encoding="utf-8"?>
<!-- Generator: Adobe Illustrator 25.2.2, SVG Export Plug-In . SVG Version: 6.00 Build 0)  -->
<svg version="1.1" id="Laag_1" xmlns="http://www.w3.org/2000/svg" xmlns:xlink="http://www.w3.org/1999/xlink" x="0px" y="0px"
	 viewBox="0 0 516 123.4" style="enable-background:new 0 0 516 123.4;" xml:space="preserve">
<style type="text/css">
	.st0{fill:#D8BA00;}
	.st1{fill:#1D1D1B;}
	.st2{fill:#FFFFFF;}
</style>
<ellipse class="st0" cx="48.8" cy="61.7" rx="48.8" ry="50.2"/>
<path class="st1" d="M148.2,73.5c0,1.7-0.3,3.5-1,5.1c-0.7,1.5-1.6,2.8-2.9,3.8c-1.3,1.1-2.8,1.9-4.4,2.4c-1.9,0.6-3.8,0.9-5.7,0.8
	c-2.3,0-4.7-0.4-6.9-1.1c-0.8-0.3-1.6-0.6-2.4-1.1c-0.5-0.3-1-0.6-1.5-1c-0.3-0.3-0.5-0.7-0.7-1.1c-0.2-0.6-0.2-1.1-0.2-1.7
	c0-0.3,0-0.7,0.1-1c0-0.3,0.1-0.5,0.2-0.7c0.1-0.2,0.2-0.3,0.3-0.5c0.1-0.1,0.3-0.2,0.5-0.1c0.5,0.1,1,0.3,1.3,0.6
	c0.7,0.5,1.5,0.9,2.2,1.3c1,0.6,2,1,3.1,1.4c2.5,0.8,5.2,0.8,7.8,0.2c1-0.3,1.9-0.7,2.7-1.3c0.8-0.6,1.4-1.3,1.8-2.2
	c0.5-1,0.7-2.1,0.7-3.2c0-1.1-0.3-2.2-0.8-3.1c-0.6-0.9-1.4-1.6-2.2-2.2c-1-0.7-2-1.2-3.1-1.6l-3.6-1.4c-1.2-0.5-2.4-1.1-3.6-1.7
	c-1.1-0.6-2.2-1.3-3.1-2.2c-0.9-0.9-1.7-1.9-2.2-3.1c-0.6-1.4-0.9-2.9-0.8-4.4c0-1.4,0.3-2.7,0.8-4c0.5-1.3,1.3-2.6,2.3-3.5
	c1.2-1.1,2.5-2,4-2.5c1.9-0.7,3.8-1,5.8-1c1,0,1.9,0.1,2.8,0.2c0.9,0.1,1.7,0.4,2.5,0.6c0.7,0.2,1.4,0.5,2,0.9
	c0.4,0.2,0.9,0.5,1.3,0.8c0.2,0.2,0.4,0.4,0.6,0.6c0.1,0.2,0.2,0.3,0.2,0.5c0,0.2,0.1,0.4,0.1,0.6c0,0.3,0,0.6,0,0.9
	c0,0.3,0,0.6-0.1,0.9c0,0.2-0.1,0.5-0.2,0.7c-0.1,0.2-0.2,0.3-0.3,0.5c-0.1,0.1-0.3,0.2-0.4,0.1c-0.4-0.1-0.7-0.2-1-0.5
	c-0.6-0.4-1.2-0.7-1.8-1c-0.8-0.4-1.7-0.8-2.6-1c-1.1-0.3-2.3-0.5-3.5-0.5c-1.2,0-2.3,0.1-3.5,0.5c-0.9,0.3-1.7,0.7-2.4,1.3
	c-0.6,0.6-1,1.2-1.4,2c-0.3,0.8-0.5,1.7-0.5,2.6c0,1.1,0.3,2.3,0.8,3.2c0.6,0.9,1.3,1.7,2.2,2.3c1,0.7,2,1.2,3.1,1.7
	c1.2,0.5,2.4,1,3.6,1.5c1.2,0.5,2.4,1,3.6,1.6c1.1,0.6,2.2,1.3,3.1,2.1c0.9,0.8,1.7,1.9,2.2,3C148,70.6,148.3,72,148.2,73.5z"/>
<path class="st1" d="M191.6,78.1c0,0.4,0,0.7,0,0.9c0,0.2-0.1,0.5-0.1,0.7c-0.1,0.2-0.1,0.4-0.2,0.5c-0.2,0.3-0.4,0.6-0.7,0.8
	c-0.6,0.5-1.2,1-1.8,1.4c-0.9,0.6-1.9,1.1-2.9,1.5c-1.1,0.5-2.3,0.8-3.4,1.1c-1.3,0.3-2.5,0.4-3.8,0.4c-2.4,0-4.8-0.4-7-1.4
	c-2-0.9-3.7-2.3-5.1-4c-1.5-2-2.5-4.2-3.2-6.6c-0.8-2.9-1.1-5.9-1.1-9c-0.1-3.3,0.4-6.6,1.3-9.8c0.7-2.5,2-4.7,3.6-6.7
	c1.5-1.7,3.3-3,5.4-3.9c2.1-0.8,4.4-1.3,6.6-1.2c2.3,0,4.6,0.5,6.8,1.4c0.9,0.4,1.8,0.8,2.6,1.4c0.6,0.4,1.1,0.9,1.7,1.4
	c0.3,0.3,0.5,0.5,0.7,0.8c0.1,0.2,0.2,0.4,0.3,0.6c0.1,0.2,0.1,0.5,0.1,0.8c0,0.3,0,0.6,0,1c0.1,0.6-0.1,1.2-0.4,1.8
	c-0.2,0.3-0.5,0.5-0.8,0.5c-0.6-0.1-1.1-0.4-1.5-0.8c-0.7-0.6-1.4-1.2-2.2-1.7c-1-0.7-2-1.3-3.1-1.7c-1.5-0.6-3-0.8-4.6-0.8
	c-3.3-0.2-6.5,1.5-8.4,4.3c-2,2.9-2.9,7.1-2.9,12.6c0,2.4,0.2,4.9,0.8,7.2c0.4,1.9,1.2,3.6,2.3,5.2c0.9,1.3,2.2,2.4,3.6,3.1
	c2.9,1.3,6.3,1.4,9.3,0.2c1.2-0.5,2.3-1.1,3.3-1.8c0.9-0.7,1.7-1.3,2.4-1.8c0.4-0.4,0.9-0.7,1.4-0.8c0.2,0,0.3,0,0.4,0.1
	c0.1,0.1,0.2,0.3,0.3,0.5c0.1,0.3,0.2,0.5,0.2,0.8C191.6,77.4,191.6,77.8,191.6,78.1z"/>
<path class="st1" d="M228.6,46.6c0,0.4,0,0.8,0,1.1c0,0.3-0.1,0.5-0.2,0.7c-0.1,0.2-0.1,0.3-0.2,0.4c-0.1,0.1-0.3,0.2-0.4,0.1
	c-0.3,0-0.6-0.1-0.9-0.2l-1.2-0.4c-0.4-0.1-0.9-0.3-1.5-0.4c-0.6-0.1-1.2-0.2-1.8-0.2c-0.8,0-1.5,0.2-2.2,0.5
	c-0.8,0.4-1.6,0.9-2.3,1.6c-0.9,0.9-1.8,1.8-2.5,2.9c-0.9,1.2-1.9,2.7-2.9,4.5V84c0,0.2,0,0.3-0.1,0.5c-0.1,0.2-0.2,0.3-0.4,0.4
	c-0.2,0.1-0.5,0.2-0.8,0.2c-0.4,0.1-0.8,0.1-1.3,0c-0.4,0-0.7,0-1.1,0c-0.3,0-0.5-0.1-0.8-0.2c-0.2-0.1-0.3-0.2-0.4-0.4
	c-0.1-0.1-0.1-0.3-0.1-0.5V44.6c0-0.2,0-0.3,0.1-0.5c0.1-0.2,0.2-0.3,0.4-0.4c0.2-0.1,0.5-0.2,0.7-0.2c0.4,0,0.7-0.1,1.1-0.1
	c0.4,0,0.8,0,1.2,0.1c0.2,0,0.5,0.1,0.7,0.2c0.2,0.1,0.3,0.2,0.4,0.4c0.1,0.1,0.1,0.3,0.1,0.5v6.2c0.9-1.4,1.9-2.8,3-4
	c0.8-0.9,1.7-1.7,2.6-2.4c0.7-0.5,1.6-0.9,2.4-1.1c0.8-0.2,1.6-0.3,2.4-0.3c0.4,0,0.8,0,1.3,0.1c0.5,0.1,1,0.1,1.5,0.2
	c0.5,0.1,1,0.2,1.5,0.4c0.3,0.1,0.6,0.2,0.9,0.4c0.1,0.1,0.3,0.2,0.3,0.3c0.1,0.1,0.1,0.3,0.1,0.4c0,0.2,0.1,0.4,0.1,0.7
	C228.6,45.8,228.6,46.2,228.6,46.6z"/>
<path class="st1" d="M248.2,84c0,0.2,0,0.3-0.1,0.5c-0.1,0.2-0.2,0.3-0.4,0.4c-0.2,0.1-0.5,0.2-0.8,0.2c-0.4,0.1-0.8,0.1-1.2,0.1
	c-0.4,0-0.8,0-1.2-0.1c-0.3,0-0.5-0.1-0.8-0.2c-0.2-0.1-0.3-0.2-0.4-0.4c-0.1-0.1-0.1-0.3-0.1-0.5V44.6c0-0.2,0-0.3,0.1-0.5
	c0.1-0.2,0.2-0.3,0.4-0.4c0.2-0.1,0.5-0.2,0.8-0.2c0.4-0.1,0.8-0.1,1.2-0.1c0.4,0,0.8,0,1.2,0.1c0.3,0,0.5,0.1,0.8,0.2
	c0.2,0.1,0.3,0.2,0.4,0.4c0.1,0.1,0.1,0.3,0.1,0.5V84z"/>
<path class="st1" d="M301.2,63.7c0,3.1-0.4,6.1-1.1,9.1c-0.6,2.5-1.7,4.8-3.1,6.9c-1.4,1.9-3.1,3.3-5.1,4.4c-2.2,1.1-4.6,1.6-7,1.6
	c-1.1,0-2.1-0.1-3.1-0.4c-1-0.3-2-0.6-2.9-1.1c-1-0.6-1.9-1.2-2.8-2c-1-0.9-2-1.8-2.9-2.8v20.3c0,0.2,0,0.3-0.1,0.5
	c-0.1,0.2-0.2,0.3-0.4,0.4c-0.2,0.1-0.5,0.2-0.8,0.2c-0.4,0-0.8,0-1.2,0c-0.4,0-0.8,0-1.2,0c-0.3,0-0.5-0.1-0.8-0.2
	c-0.2-0.1-0.3-0.2-0.4-0.4c-0.1-0.2-0.1-0.3-0.1-0.5V44.6c0-0.2,0-0.4,0.1-0.5c0.1-0.2,0.2-0.3,0.4-0.3c0.2-0.1,0.5-0.2,0.7-0.2
	c0.4-0.1,0.7-0.1,1.1-0.1c0.3,0,0.7,0,1,0.1c0.2,0,0.5,0.1,0.7,0.2c0.2,0.1,0.3,0.2,0.4,0.3c0.1,0.2,0.1,0.3,0.1,0.5v5.7
	c1.1-1.1,2.2-2.2,3.3-3.2c1-0.9,2.1-1.6,3.2-2.3c1-0.6,2.1-1,3.3-1.3c1.2-0.3,2.4-0.4,3.6-0.4c2.4-0.1,4.8,0.5,7,1.6
	c1.9,1.1,3.5,2.6,4.7,4.5c1.3,2,2.2,4.2,2.6,6.6C300.9,58.3,301.2,61,301.2,63.7z M296,64.5c0-2.1-0.2-4.3-0.5-6.4
	c-0.3-1.9-0.9-3.7-1.7-5.5c-0.7-1.5-1.8-2.8-3.2-3.8c-1.5-1-3.2-1.5-5-1.4c-1,0-2,0.1-3,0.4c-1,0.3-2,0.8-2.9,1.4
	c-1.1,0.8-2.2,1.6-3.2,2.6c-1.2,1.2-2.4,2.6-3.4,3.9V73c1.7,2.3,3.8,4.3,6,6.1c1.7,1.3,3.8,2.1,6,2.1c1.8,0.1,3.5-0.5,5-1.5
	c1.4-1,2.6-2.3,3.4-3.8c0.9-1.7,1.5-3.5,1.9-5.3C295.8,68.5,296,66.5,296,64.5z"/>
<path class="st1" d="M336.5,81.6c0,0.5,0,1-0.1,1.5c-0.1,0.3-0.2,0.6-0.5,0.9c-0.3,0.3-0.6,0.5-0.9,0.6c-0.5,0.2-0.9,0.4-1.4,0.5
	c-0.6,0.1-1.1,0.2-1.7,0.3c-0.6,0.1-1.1,0.1-1.7,0.1c-1.6,0-3.2-0.2-4.8-0.8c-1.3-0.5-2.4-1.3-3.2-2.4c-0.9-1.2-1.5-2.6-1.8-4
	c-0.4-1.9-0.6-3.8-0.6-5.7V48.1h-5.6c-0.4,0-0.7-0.2-0.9-0.5c-0.3-0.5-0.4-1.1-0.3-1.6c0-0.3,0-0.7,0.1-1c0-0.2,0.1-0.5,0.3-0.7
	c0.1-0.2,0.2-0.3,0.4-0.4c0.2-0.1,0.3-0.2,0.5-0.2h5.6v-9.6c0-0.2,0-0.3,0.1-0.5c0.1-0.2,0.2-0.3,0.4-0.4c0.2-0.1,0.5-0.2,0.8-0.2
	c0.4-0.1,0.8-0.1,1.2-0.1c0.4,0,0.8,0,1.2,0.1c0.3,0,0.5,0.1,0.8,0.2c0.2,0.1,0.3,0.2,0.4,0.4c0.1,0.1,0.1,0.3,0.1,0.5v9.6h10.4
	c0.2,0,0.4,0,0.5,0.1c0.2,0.1,0.3,0.2,0.4,0.4c0.1,0.2,0.2,0.5,0.3,0.7c0.1,0.3,0.1,0.6,0.1,1c0,0.6-0.1,1.1-0.4,1.6
	c-0.2,0.3-0.5,0.5-0.9,0.5h-10.5v23.8c-0.1,2.3,0.3,4.7,1.2,6.8c0.9,1.6,2.7,2.5,4.5,2.3c0.6,0,1.2-0.1,1.8-0.2
	c0.5-0.1,1-0.3,1.4-0.5c0.4-0.2,0.8-0.3,1.1-0.5c0.2-0.1,0.5-0.2,0.8-0.2c0.1,0,0.3,0,0.4,0.1c0.1,0.1,0.2,0.2,0.3,0.3
	c0.1,0.2,0.1,0.4,0.2,0.6C336.5,80.9,336.5,81.3,336.5,81.6z"/>
<path class="st1" d="M377.8,84c0,0.3-0.1,0.5-0.3,0.7c-0.2,0.2-0.5,0.3-0.7,0.4c-0.4,0.1-0.8,0.1-1.2,0.1c-0.4,0-0.8,0-1.2-0.1
	c-0.3-0.1-0.5-0.2-0.8-0.4c-0.2-0.2-0.3-0.4-0.3-0.7v-4.4c-1.6,1.8-3.5,3.3-5.6,4.4c-2,1-4.2,1.6-6.4,1.6c-1.8,0-3.6-0.2-5.3-0.8
	c-1.5-0.5-2.8-1.3-4-2.3c-1.1-1-1.9-2.2-2.5-3.6c-0.6-1.5-0.9-3.1-0.9-4.8c0-2,0.4-3.9,1.3-5.7c0.9-1.6,2.2-3,3.7-4
	c1.8-1.1,3.7-2,5.7-2.4c2.4-0.6,4.9-0.8,7.5-0.8h6v-3.4c0-1.5-0.1-3-0.5-4.4c-0.3-1.2-0.8-2.3-1.6-3.2c-0.8-0.9-1.8-1.6-2.9-2
	c-1.4-0.5-2.9-0.7-4.4-0.7c-1.5,0-3.1,0.2-4.5,0.6c-1.2,0.4-2.4,0.8-3.5,1.4c-1,0.5-1.8,1-2.5,1.4c-0.4,0.3-0.9,0.5-1.4,0.6
	c-0.2,0-0.3,0-0.5-0.1c-0.2-0.1-0.3-0.2-0.4-0.3c-0.1-0.2-0.2-0.4-0.2-0.6c0-0.3-0.1-0.6-0.1-0.9c0-0.5,0-1,0.1-1.5
	c0.1-0.4,0.3-0.8,0.7-1.1c0.6-0.5,1.2-0.9,1.9-1.3c1-0.5,2-1,3.1-1.4c1.2-0.4,2.5-0.8,3.8-1c1.3-0.3,2.7-0.4,4-0.4
	c2.2-0.1,4.4,0.3,6.6,1c1.6,0.6,3.1,1.5,4.3,2.8c1.1,1.3,2,2.8,2.4,4.5c0.5,2,0.7,4,0.7,6.1L377.8,84z M372.8,65.4h-6.9
	c-1.8,0-3.6,0.2-5.3,0.6c-1.3,0.3-2.6,0.9-3.8,1.6c-0.9,0.7-1.7,1.6-2.2,2.6c-0.5,1.1-0.8,2.3-0.7,3.4c-0.1,2,0.7,4,2.1,5.4
	c1.6,1.4,3.7,2.2,5.8,2c2,0,3.9-0.5,5.5-1.6c2-1.3,3.9-2.9,5.5-4.8V65.4z"/>
<path class="st1" d="M402.6,84c0,0.2,0,0.3-0.1,0.5c-0.1,0.2-0.2,0.3-0.4,0.4c-0.2,0.1-0.5,0.2-0.8,0.2c-0.4,0.1-0.8,0.1-1.2,0.1
	c-0.4,0-0.8,0-1.2-0.1c-0.3,0-0.5-0.1-0.8-0.2c-0.2-0.1-0.3-0.2-0.4-0.4c-0.1-0.1-0.1-0.3-0.1-0.5V25.3c0-0.2,0-0.3,0.1-0.5
	c0.1-0.2,0.2-0.3,0.4-0.4c0.2-0.1,0.5-0.2,0.8-0.2c0.4-0.1,0.8-0.1,1.2-0.1c0.4,0,0.8,0,1.2,0.1c0.3,0,0.5,0.1,0.8,0.2
	c0.2,0.1,0.3,0.2,0.4,0.4c0.1,0.1,0.1,0.3,0.1,0.5V84z"/>
<path class="st1" d="M427.5,84c0,0.2,0,0.3-0.1,0.5c-0.1,0.2-0.2,0.3-0.4,0.4c-0.2,0.1-0.5,0.2-0.8,0.2c-0.4,0.1-0.8,0.1-1.3,0
	c-0.4,0-0.8,0-1.2-0.1c-0.3,0-0.5-0.1-0.8-0.2c-0.2-0.1-0.3-0.2-0.4-0.4c-0.1-0.1-0.1-0.3-0.1-0.5V44.6c0-0.2,0-0.3,0.1-0.5
	c0.1-0.2,0.2-0.3,0.4-0.4c0.2-0.1,0.5-0.2,0.8-0.2c0.4-0.1,0.8-0.1,1.2-0.1c0.4,0,0.8,0,1.2,0.1c0.3,0,0.5,0.1,0.8,0.2
	c0.2,0.1,0.3,0.2,0.4,0.4c0.1,0.1,0.1,0.3,0.1,0.5L427.5,84z"/>
<path class="st1" d="M470.4,82.6c0,0.3,0,0.7-0.1,1c-0.1,0.3-0.1,0.5-0.3,0.7c-0.1,0.2-0.2,0.3-0.4,0.4c-0.2,0.1-0.4,0.1-0.5,0.1
	h-22.6c-0.5,0-0.9-0.2-1.3-0.5c-0.4-0.5-0.6-1.1-0.5-1.7v-1.2c0-0.3,0-0.6,0.1-0.9c0.1-0.3,0.1-0.6,0.3-0.8c0.1-0.3,0.3-0.6,0.4-0.9
	c0.2-0.3,0.4-0.7,0.7-1.1l18-29.3h-17.7c-0.4,0-0.8-0.2-1-0.5c-0.3-0.5-0.4-1.1-0.4-1.7c0-0.3,0-0.7,0.1-1c0.1-0.2,0.2-0.5,0.3-0.7
	c0.1-0.2,0.2-0.3,0.4-0.4c0.2-0.1,0.4-0.1,0.5-0.1h20.9c0.2,0,0.5,0,0.7,0.1c0.2,0.1,0.4,0.2,0.6,0.4c0.2,0.2,0.3,0.4,0.4,0.7
	c0.1,0.3,0.1,0.7,0.1,1v1c0,0.3,0,0.6-0.1,0.9c0,0.3-0.1,0.6-0.2,0.9c-0.1,0.3-0.3,0.7-0.5,1c-0.2,0.4-0.4,0.8-0.7,1.2l-18,29.3H469
	c0.2,0,0.4,0,0.5,0.1c0.2,0.1,0.3,0.2,0.4,0.4c0.1,0.2,0.2,0.5,0.3,0.7C470.3,81.9,470.4,82.2,470.4,82.6z"/>
<path class="st1" d="M516,62.3c0.1,0.8-0.2,1.6-0.8,2.1c-0.4,0.4-1,0.6-1.6,0.6h-25.8c0,2.2,0.2,4.4,0.7,6.6
	c0.4,1.8,1.2,3.6,2.3,5.1c1.1,1.4,2.5,2.5,4.1,3.2c2,0.8,4.1,1.2,6.3,1.1c1.6,0,3.2-0.1,4.7-0.5c1.2-0.3,2.4-0.6,3.6-1.1
	c1-0.4,1.9-0.7,2.5-1.1c0.4-0.3,0.9-0.4,1.4-0.5c0.2,0,0.3,0,0.5,0.1c0.1,0.1,0.3,0.2,0.3,0.4c0.1,0.2,0.2,0.5,0.2,0.7
	c0,0.4,0.1,0.7,0.1,1.1c0,0.2,0,0.4,0,0.6c0,0.2-0.1,0.4-0.1,0.5c0,0.2-0.1,0.3-0.2,0.4c-0.1,0.2-0.2,0.3-0.3,0.4
	c-0.4,0.3-0.8,0.6-1.3,0.8c-0.9,0.5-1.9,0.8-2.8,1.1c-1.3,0.4-2.7,0.7-4.1,1c-1.6,0.3-3.3,0.4-5,0.4c-2.6,0-5.3-0.4-7.8-1.4
	c-2.2-0.9-4.1-2.2-5.7-4c-1.6-1.9-2.9-4.2-3.6-6.7c-0.8-3-1.2-6.1-1.2-9.2c-0.1-3,0.3-6.1,1.2-9c0.7-2.5,1.9-4.7,3.5-6.7
	c1.5-1.8,3.4-3.3,5.5-4.2c2.3-1,4.7-1.5,7.2-1.5c2.5-0.1,5,0.4,7.3,1.5c1.9,0.9,3.6,2.3,5,4c1.3,1.7,2.3,3.7,2.8,5.7
	c0.6,2.3,0.9,4.6,0.9,7L516,62.3z M510.9,60.7c0.1-4.2-0.8-7.4-2.8-9.8c-1.9-2.4-4.7-3.5-8.4-3.5c-3.3-0.1-6.5,1.4-8.7,4
	c-1,1.2-1.8,2.7-2.3,4.2c-0.5,1.6-0.8,3.3-0.9,5L510.9,60.7z"/>
<path class="st2" d="M69.4,87l-0.8,0.7C68.7,87.6,69.4,87,69.4,87z"/>
<path class="st2" d="M68.6,87.7L68.6,87.7z"/>
<path class="st2" d="M75.8,87.6l0.2-0.2c13.5-15.6,12.3-39.6-2.7-53.6s-38.1-12.8-51.6,2.8S9.3,76.2,24.3,90.2
	c2.8,2.6,6,4.8,9.5,6.4L32.7,96c1,0.6,2.1,1.1,3.1,1.5c1.4,0.5,2.8,0.9,4.3,1.2c1.7,0.4,3.4,0.5,5.1,0.5c2.5,0,4.9-0.4,7.3-1.1
	c2.1-0.7,4.1-1.8,5.8-3.2c0.8-0.7,1.5-1.5,2.1-2.3c-0.5,0.2-1,0.4-1.5,0.6c0.5-0.2,1-0.4,1.5-0.6c0.7-0.9,1.3-1.9,1.7-2.9
	c0.2-0.5,0.4-1,0.6-1.5c0.5-1.7,0.8-3.6,0.8-5.4c0.1-2-0.3-4.1-1.1-5.9c-0.7-1.6-1.8-3.1-3.1-4.4c-1.3-1.3-2.7-2.4-4.2-3.2
	c-1.6-0.9-3.2-1.8-4.8-2.6c-1.6-0.8-3.2-1.6-4.8-2.4c-1.5-0.7-2.9-1.6-4.2-2.7c-1.2-0.9-2.2-2.1-3-3.4c-0.8-1.4-1.2-3-1.1-4.6
	c0-1.2,0.2-2.4,0.6-3.5c0.4-1.1,1.1-2.1,1.9-2.9c0.9-0.9,2-1.6,3.2-2c1.4-0.5,2.9-0.7,4.4-0.7c1.6,0,3.1,0.2,4.6,0.7
	c1.2,0.4,2.4,0.9,3.5,1.5c1,0.5,1.8,1,2.5,1.5c0.4,0.3,0.9,0.6,1.5,0.6c0.2,0,0.3-0.1,0.5-0.2c0.1-0.1,0.2-0.3,0.3-0.5
	c0.1-0.3,0.2-0.5,0.2-0.8c0-0.4,0.1-0.7,0.1-1.1c0-0.4,0-0.8,0-1.1c0-0.3-0.1-0.5-0.1-0.7c0-0.2-0.1-0.4-0.2-0.5
	c-0.1-0.2-0.3-0.4-0.5-0.6c-0.5-0.5-1.1-0.8-1.7-1.1c-0.9-0.5-1.9-0.9-2.9-1.3c-1.1-0.4-2.3-0.7-3.5-0.9c-1.2-0.2-2.4-0.4-3.6-0.4
	c-2.2,0-4.4,0.3-6.5,1c-1.9,0.6-3.6,1.6-5.1,2.9c-1.4,1.3-2.6,2.8-3.3,4.6c-0.8,1.9-1.2,4-1.1,6c-0.1,2.1,0.3,4.1,1.1,6
	c0.7,1.6,1.7,3.1,3,4.4c1.3,1.3,2.7,2.4,4.2,3.3c1.6,0.9,3.2,1.8,4.8,2.6c1.6,0.8,3.2,1.6,4.8,2.4c1.5,0.7,2.9,1.6,4.2,2.7
	c1.2,0.9,2.2,2.1,3,3.4c0.8,1.4,1.2,3,1.1,4.6c0,1.6-0.3,3.1-0.9,4.6l0,0c-0.6,1.3-1.4,2.5-2.5,3.4l-0.2,0.2c-1.1,0.8-2.3,1.5-3.6,2
	c-1.2,0.4-2.4,0.7-3.7,0.8c-2.2,0.2-4.5,0-6.6-0.6c-16.8-4.9-26.6-22.9-22-40.4s22.1-27.6,38.9-22.8c13.7,4,23.1,16.9,23.1,31.6
	c-0.1,2.9-0.4,5.9-1.1,8.7c-1.6,5.4-4.4,10.3-8.1,14.4L71,85.4c-0.4,0.4-0.9,0.9-1.3,1.3L69.4,87l0,0h-0.1c-0.3,0.3-0.6,0.5-0.9,0.8
	c-0.1,0.1-0.1,0.2-0.1,0.3c-0.1,0.2-0.1,0.3,0,0.5c0.1,0.2,0.2,0.4,0.4,0.5c0.2,0.2,0.4,0.3,0.7,0.4c0.3,0.2,0.6,0.3,1,0.4
	c0.4,0.1,0.7,0.2,1,0.3c0.2,0.1,0.5,0.1,0.7,0.1c0.2,0,0.4,0,0.5,0c0.3-0.1,0.5-0.2,0.7-0.3c0.4-0.2,0.7-0.5,1-0.8
	c0.4-0.4,0.7-0.7,1-1.1C75.5,87.9,75.7,87.8,75.8,87.6z M53.3,94.5L53.3,94.5z M57.5,93.6l1-0.3L57.5,93.6z M55.3,94.1l-0.9,0.2
	L55.3,94.1z M56.9,93.8L55.9,94L56.9,93.8z M51.9,94.7L51.9,94.7z M50.4,94.8L50.4,94.8z M47.7,94.8L47.7,94.8z M46.5,94.7
	L46.5,94.7z"/>
<path class="st2" d="M68.6,87.7L68.6,87.7z"/>
</svg>
