<svg id="Laag_1" data-name="Laag 1" xmlns="http://www.w3.org/2000/svg" viewBox="0 0 232.35 269.71"><defs><style>.cls-1{fill:#1d1d1b;}.cls-2{fill:#d8ba00;}</style></defs><path class="cls-1" d="M43.26,231.54a4.81,4.81,0,0,1-.43,2.08,4.41,4.41,0,0,1-1.22,1.56,5.48,5.48,0,0,1-1.91,1,8.13,8.13,0,0,1-2.44.34,9,9,0,0,1-1.59-.13,9.31,9.31,0,0,1-1.36-.34,5.87,5.87,0,0,1-1-.44,3.14,3.14,0,0,1-.62-.41,1.06,1.06,0,0,1-.29-.45,2.23,2.23,0,0,1-.09-.71,2.48,2.48,0,0,1,0-.41,1.07,1.07,0,0,1,.09-.3.35.35,0,0,1,.14-.19.36.36,0,0,1,.2-.06,1.17,1.17,0,0,1,.57.25c.25.16.56.34.94.54a8.24,8.24,0,0,0,1.34.55,6,6,0,0,0,1.79.25,5.82,5.82,0,0,0,1.5-.18,3.56,3.56,0,0,0,1.18-.54,2.49,2.49,0,0,0,.78-.92,3,3,0,0,0,.27-1.31,2.26,2.26,0,0,0-.35-1.27,3.52,3.52,0,0,0-.94-.9,7.43,7.43,0,0,0-1.32-.68c-.5-.19-1-.4-1.52-.61s-1-.43-1.52-.68a6.19,6.19,0,0,1-1.32-.91,4.21,4.21,0,0,1-.94-1.29,4.13,4.13,0,0,1-.35-1.8,4.33,4.33,0,0,1,.32-1.65,4,4,0,0,1,1-1.46,5,5,0,0,1,1.71-1,7.09,7.09,0,0,1,2.48-.39,6.94,6.94,0,0,1,1.2.1,7.59,7.59,0,0,1,1.09.26,5.33,5.33,0,0,1,.85.35,2.89,2.89,0,0,1,.54.33.82.82,0,0,1,.25.24.72.72,0,0,1,.09.2c0,.08,0,.16,0,.26s0,.23,0,.37a2.24,2.24,0,0,1,0,.38,1.84,1.84,0,0,1-.08.3.44.44,0,0,1-.14.18.24.24,0,0,1-.18.07.91.91,0,0,1-.43-.2,7.33,7.33,0,0,0-.75-.43,7.6,7.6,0,0,0-1.11-.43,5.11,5.11,0,0,0-1.48-.19,5,5,0,0,0-1.47.19,2.76,2.76,0,0,0-1,.56,2.42,2.42,0,0,0-.62.84,2.77,2.77,0,0,0-.2,1,2.33,2.33,0,0,0,.36,1.32,3.21,3.21,0,0,0,.94.93,8.42,8.42,0,0,0,1.34.7l1.53.6c.52.21,1,.43,1.53.67a5.94,5.94,0,0,1,1.33.89,3.74,3.74,0,0,1,1.31,3Z"/><path class="cls-1" d="M61.75,233.45c0,.14,0,.27,0,.38a1.22,1.22,0,0,1-.06.3.73.73,0,0,1-.09.22,2.29,2.29,0,0,1-.3.33,4.5,4.5,0,0,1-.78.59,6.65,6.65,0,0,1-1.22.63,10,10,0,0,1-1.46.43,8.06,8.06,0,0,1-4.6-.39,5.54,5.54,0,0,1-2.17-1.66,7.58,7.58,0,0,1-1.33-2.7,13.56,13.56,0,0,1-.46-3.68,12.61,12.61,0,0,1,.57-4,7.59,7.59,0,0,1,1.54-2.75,6.12,6.12,0,0,1,2.3-1.58,8,8,0,0,1,4.34-.36,8.23,8.23,0,0,1,1.35.41,5.42,5.42,0,0,1,1.1.57,4.09,4.09,0,0,1,.7.54,3.53,3.53,0,0,1,.31.34,1,1,0,0,1,.12.26,2.82,2.82,0,0,1,.07.31c0,.11,0,.25,0,.4a1.3,1.3,0,0,1-.15.73.43.43,0,0,1-.33.2,1,1,0,0,1-.61-.32,10,10,0,0,0-.94-.7,6.66,6.66,0,0,0-1.39-.71,5.3,5.3,0,0,0-1.93-.32,4.11,4.11,0,0,0-3.58,1.78,8.89,8.89,0,0,0-1.26,5.16,11.47,11.47,0,0,0,.34,3,6,6,0,0,0,1,2.12,4,4,0,0,0,1.54,1.27,5.34,5.34,0,0,0,4,.08,8.65,8.65,0,0,0,1.43-.75,11.56,11.56,0,0,0,1-.75,1.16,1.16,0,0,1,.6-.34.28.28,0,0,1,.18.06.51.51,0,0,1,.14.2,2.13,2.13,0,0,1,.08.32A2.85,2.85,0,0,1,61.75,233.45Z"/><path class="cls-1" d="M77.54,220.5c0,.18,0,.33,0,.46a1.57,1.57,0,0,1-.06.3.5.5,0,0,1-.11.18.24.24,0,0,1-.17.06,1,1,0,0,1-.38-.08l-.5-.17-.62-.17a3.52,3.52,0,0,0-.75-.08,2.3,2.3,0,0,0-1,.21,4,4,0,0,0-1,.66,7.88,7.88,0,0,0-1.07,1.21c-.38.5-.79,1.11-1.24,1.83v10.93a.36.36,0,0,1-.06.2.3.3,0,0,1-.17.14,1,1,0,0,1-.32.09,3.44,3.44,0,0,1-.52,0,3.29,3.29,0,0,1-.51,0,1.1,1.1,0,0,1-.33-.09.27.27,0,0,1-.17-.14.46.46,0,0,1-.05-.2V219.68a.41.41,0,0,1,.05-.19.38.38,0,0,1,.17-.16,1,1,0,0,1,.31-.09l.49,0,.5,0a.89.89,0,0,1,.3.09.49.49,0,0,1,.16.16.58.58,0,0,1,0,.19v2.56a12.88,12.88,0,0,1,1.29-1.65,6.28,6.28,0,0,1,1.12-1,3.44,3.44,0,0,1,1-.47,4,4,0,0,1,1-.13l.54,0a6.11,6.11,0,0,1,.65.1,3.27,3.27,0,0,1,.62.17,1.3,1.3,0,0,1,.39.18.61.61,0,0,1,.14.14.91.91,0,0,1,.06.16,1.3,1.3,0,0,1,0,.27C77.53,220.18,77.54,220.33,77.54,220.5Z"/><path class="cls-1" d="M85.86,235.84a.35.35,0,0,1,0,.2.34.34,0,0,1-.17.14,1.12,1.12,0,0,1-.32.09,3.59,3.59,0,0,1-.53,0,3.52,3.52,0,0,1-.51,0,1.31,1.31,0,0,1-.33-.09.3.3,0,0,1-.17-.14.45.45,0,0,1,0-.2V219.68a.41.41,0,0,1,0-.19.44.44,0,0,1,.17-.16,1.31,1.31,0,0,1,.33-.09l.51,0,.53,0a1.12,1.12,0,0,1,.32.09.53.53,0,0,1,.17.16.32.32,0,0,1,0,.19Z"/><path class="cls-1" d="M108.47,227.52a14.23,14.23,0,0,1-.45,3.73,8,8,0,0,1-1.34,2.82,6,6,0,0,1-2.19,1.8,6.76,6.76,0,0,1-3,.63,5.73,5.73,0,0,1-1.34-.15,5.38,5.38,0,0,1-1.22-.47,7.67,7.67,0,0,1-1.2-.81,12.86,12.86,0,0,1-1.26-1.16v8.34a.35.35,0,0,1,0,.2.42.42,0,0,1-.17.15,1,1,0,0,1-.32.09,3.79,3.79,0,0,1-.53,0,3.68,3.68,0,0,1-.51,0,1.31,1.31,0,0,1-.33-.09.36.36,0,0,1-.17-.15.45.45,0,0,1,0-.2V219.68a.46.46,0,0,1,0-.21.32.32,0,0,1,.16-.14,1,1,0,0,1,.31-.09l.45,0,.45,0a1.07,1.07,0,0,1,.3.09.3.3,0,0,1,.18.14.36.36,0,0,1,0,.21V222c.5-.51,1-1,1.43-1.33a9.8,9.8,0,0,1,1.36-.94,5.83,5.83,0,0,1,1.39-.55A6.27,6.27,0,0,1,102,219a6.1,6.1,0,0,1,3,.67,5.7,5.7,0,0,1,2,1.83,8.16,8.16,0,0,1,1.13,2.71A15,15,0,0,1,108.47,227.52Zm-2.23.34a16,16,0,0,0-.21-2.62,8,8,0,0,0-.72-2.24,4.42,4.42,0,0,0-1.36-1.57,3.7,3.7,0,0,0-2.14-.59,4.45,4.45,0,0,0-1.25.18,5.08,5.08,0,0,0-1.26.59A9.1,9.1,0,0,0,98,222.67a16.34,16.34,0,0,0-1.47,1.62v7a13.39,13.39,0,0,0,2.57,2.49,4.34,4.34,0,0,0,2.56.87,3.66,3.66,0,0,0,2.11-.6,4.63,4.63,0,0,0,1.44-1.57,7.52,7.52,0,0,0,.81-2.19A11.43,11.43,0,0,0,106.24,227.86Z"/><path class="cls-1" d="M123.53,234.88a2.41,2.41,0,0,1-.06.6.77.77,0,0,1-.2.37,1.25,1.25,0,0,1-.39.25,3.51,3.51,0,0,1-.6.2,7,7,0,0,1-.71.12,6.11,6.11,0,0,1-.73.05,5.82,5.82,0,0,1-2-.32,3.2,3.2,0,0,1-1.37-1,4,4,0,0,1-.78-1.65,10.21,10.21,0,0,1-.24-2.36v-10H114a.43.43,0,0,1-.39-.22,1.21,1.21,0,0,1-.15-.67,1.54,1.54,0,0,1,0-.4.76.76,0,0,1,.11-.29.4.4,0,0,1,.17-.17.51.51,0,0,1,.22-.05h2.41v-4a.41.41,0,0,1,0-.19.36.36,0,0,1,.17-.15.8.8,0,0,1,.33-.09,3.68,3.68,0,0,1,.51,0,3.79,3.79,0,0,1,.53,0,.68.68,0,0,1,.32.09.42.42,0,0,1,.17.15.32.32,0,0,1,0,.19v4H123a.51.51,0,0,1,.22.05.46.46,0,0,1,.17.17,1,1,0,0,1,.11.29,2.25,2.25,0,0,1,0,.4,1.21,1.21,0,0,1-.15.67.44.44,0,0,1-.38.22h-4.47v9.77a6,6,0,0,0,.53,2.8,2,2,0,0,0,1.92,1,3.1,3.1,0,0,0,.78-.09,5.47,5.47,0,0,0,.61-.2l.46-.2a.75.75,0,0,1,.33-.09.42.42,0,0,1,.16,0,.26.26,0,0,1,.12.13c0,.07,0,.15.07.25A2.24,2.24,0,0,1,123.53,234.88Z"/><path class="cls-1" d="M141.11,235.84a.35.35,0,0,1-.12.28.7.7,0,0,1-.3.14,2.17,2.17,0,0,1-.51.05,2.62,2.62,0,0,1-.52-.05.84.84,0,0,1-.33-.14.38.38,0,0,1-.11-.28V234a8.38,8.38,0,0,1-2.4,1.82,6.14,6.14,0,0,1-2.73.64,7.27,7.27,0,0,1-2.27-.33,4.7,4.7,0,0,1-1.71-.94,4.21,4.21,0,0,1-1.07-1.49,5,5,0,0,1-.38-2,4.51,4.51,0,0,1,2.13-4,7.57,7.57,0,0,1,2.45-1,14.09,14.09,0,0,1,3.17-.33H139v-1.39a7.19,7.19,0,0,0-.22-1.84,3.15,3.15,0,0,0-.7-1.33,3,3,0,0,0-1.25-.8,5.64,5.64,0,0,0-1.87-.27,6.78,6.78,0,0,0-1.93.26,11,11,0,0,0-1.5.58c-.43.22-.78.41-1.06.58a1.34,1.34,0,0,1-.6.26.64.64,0,0,1-.2,0,.33.33,0,0,1-.15-.14.73.73,0,0,1-.09-.25,3.53,3.53,0,0,1,0-.36,2.48,2.48,0,0,1,0-.6,1,1,0,0,1,.28-.45,3.75,3.75,0,0,1,.79-.53,11,11,0,0,1,1.31-.56,12,12,0,0,1,1.6-.42,9.92,9.92,0,0,1,1.72-.16,8.73,8.73,0,0,1,2.8.4,4.61,4.61,0,0,1,1.85,1.16,4.4,4.4,0,0,1,1,1.84,9.55,9.55,0,0,1,.3,2.49ZM139,228.22h-3a9.92,9.92,0,0,0-2.25.23,4.66,4.66,0,0,0-1.61.68,2.76,2.76,0,0,0-1,1.07,3.14,3.14,0,0,0-.32,1.43,2.89,2.89,0,0,0,.89,2.22,3.52,3.52,0,0,0,2.49.83,4.58,4.58,0,0,0,2.36-.65,10.35,10.35,0,0,0,2.34-2Z"/><path class="cls-1" d="M151.69,235.84a.36.36,0,0,1-.06.2.3.3,0,0,1-.17.14,1,1,0,0,1-.32.09,3.44,3.44,0,0,1-.52,0,3.29,3.29,0,0,1-.51,0,1.1,1.1,0,0,1-.33-.09.27.27,0,0,1-.17-.14.46.46,0,0,1-.05-.2V211.77a.41.41,0,0,1,.05-.19.38.38,0,0,1,.17-.16.88.88,0,0,1,.33-.08,3.49,3.49,0,0,1,.51,0,3.64,3.64,0,0,1,.52,0,.78.78,0,0,1,.32.08.44.44,0,0,1,.17.16.33.33,0,0,1,.06.19Z"/><path class="cls-1" d="M162.32,235.84a.36.36,0,0,1-.06.2.3.3,0,0,1-.17.14,1,1,0,0,1-.32.09,3.44,3.44,0,0,1-.52,0,3.29,3.29,0,0,1-.51,0,1.1,1.1,0,0,1-.33-.09.27.27,0,0,1-.17-.14.46.46,0,0,1-.05-.2V219.68a.41.41,0,0,1,.05-.19.38.38,0,0,1,.17-.16,1.1,1.1,0,0,1,.33-.09l.51,0,.52,0a1,1,0,0,1,.32.09.44.44,0,0,1,.17.16.33.33,0,0,1,.06.19Z"/><path class="cls-1" d="M180.59,235.27a1.68,1.68,0,0,1,0,.41,1,1,0,0,1-.12.3.58.58,0,0,1-.18.17.59.59,0,0,1-.23,0H170.4a.74.74,0,0,1-.55-.22.94.94,0,0,1-.22-.71v-.5a2,2,0,0,1,0-.36,3.3,3.3,0,0,1,.11-.34c0-.11.11-.24.19-.38a4.69,4.69,0,0,1,.29-.47l7.68-12.06H170.4a.5.5,0,0,1-.42-.22,1.27,1.27,0,0,1-.16-.7,1.58,1.58,0,0,1,.05-.41,1.46,1.46,0,0,1,.11-.3.48.48,0,0,1,.18-.17.6.6,0,0,1,.24-.05h8.92a1.06,1.06,0,0,1,.31.05.78.78,0,0,1,.24.16.88.88,0,0,1,.16.29,1.35,1.35,0,0,1,.06.43v.41a2,2,0,0,1,0,.35,1.81,1.81,0,0,1-.09.37c-.05.12-.12.26-.2.41s-.19.32-.3.51l-7.66,12.05H180a.46.46,0,0,1,.23.06.46.46,0,0,1,.18.16,1,1,0,0,1,.12.3A1.73,1.73,0,0,1,180.59,235.27Z"/><path class="cls-1" d="M200.06,226.93a1,1,0,0,1-.34.89,1.17,1.17,0,0,1-.66.24H188a11.3,11.3,0,0,0,.3,2.71,5.33,5.33,0,0,0,1,2.08,4.32,4.32,0,0,0,1.77,1.33,6.81,6.81,0,0,0,2.68.47,9.37,9.37,0,0,0,2-.2,11.89,11.89,0,0,0,1.55-.44,11.48,11.48,0,0,0,1.07-.44,1.67,1.67,0,0,1,.6-.19.38.38,0,0,1,.19.05.42.42,0,0,1,.15.17,1.6,1.6,0,0,1,.08.3,2.59,2.59,0,0,1,0,.44,1.66,1.66,0,0,1,0,.24c0,.08,0,.15,0,.22a.77.77,0,0,1-.08.19,1,1,0,0,1-.14.17,2.88,2.88,0,0,1-.55.32,10.08,10.08,0,0,1-1.22.44,14.16,14.16,0,0,1-1.74.4,11.91,11.91,0,0,1-2.13.18,9,9,0,0,1-3.32-.56,6.13,6.13,0,0,1-2.43-1.66,7.22,7.22,0,0,1-1.49-2.72,12.64,12.64,0,0,1-.51-3.77,11.94,11.94,0,0,1,.52-3.68,8,8,0,0,1,1.51-2.76,6.66,6.66,0,0,1,2.37-1.73,7.66,7.66,0,0,1,3.08-.6,7.19,7.19,0,0,1,3.11.61,5.93,5.93,0,0,1,2.11,1.63,6.76,6.76,0,0,1,1.22,2.39,10.6,10.6,0,0,1,.38,2.85Zm-2.2-.62a5.78,5.78,0,0,0-1.17-4,4.48,4.48,0,0,0-3.59-1.45,4.85,4.85,0,0,0-2.14.46,4.72,4.72,0,0,0-1.55,1.2,5.28,5.28,0,0,0-1,1.74,7.59,7.59,0,0,0-.4,2.07Z"/><path class="cls-2" d="M161.9,161.67l-1.76,1.47Z"/><path class="cls-2" d="M160.14,163.14l0,0Z"/><path class="cls-2" d="M176.18,163l.37-.41a81.25,81.25,0,1,0-93.8,19.75l-2.39-1.28a49.87,49.87,0,0,0,7,3.15,65.93,65.93,0,0,0,9.48,2.65A55.19,55.19,0,0,0,108.16,188a52.44,52.44,0,0,0,16.25-2.42,37.59,37.59,0,0,0,12.86-7,32.05,32.05,0,0,0,4.65-4.89c-1.06.42-2.14.81-3.23,1.18,1.09-.37,2.17-.76,3.23-1.18a32.65,32.65,0,0,0,3.76-6.28,30.8,30.8,0,0,0,1.28-3.32,37.39,37.39,0,0,0,1.72-11.57,29.7,29.7,0,0,0-2.52-12.72,31.36,31.36,0,0,0-6.67-9.37,45.26,45.26,0,0,0-9.43-7q-5.27-2.94-10.73-5.51t-10.73-5.12a54.41,54.41,0,0,1-9.43-5.76,26.43,26.43,0,0,1-6.67-7.34,18.9,18.9,0,0,1-2.52-10,20.42,20.42,0,0,1,1.41-7.55A17,17,0,0,1,95.59,76a19.92,19.92,0,0,1,7.06-4.21,29.18,29.18,0,0,1,10-1.55A34.92,34.92,0,0,1,123,71.63a45,45,0,0,1,7.83,3.14q3.28,1.74,5.46,3.14a7,7,0,0,0,3.24,1.4,1.52,1.52,0,0,0,1-.38,2.86,2.86,0,0,0,.72-1.12,7.35,7.35,0,0,0,.44-1.74,17.16,17.16,0,0,0,.14-2.27c0-.9,0-1.66-.09-2.27a11.57,11.57,0,0,0-.29-1.6,5.45,5.45,0,0,0-.44-1.11,7.58,7.58,0,0,0-1.16-1.35,17.37,17.37,0,0,0-3.77-2.42,43.73,43.73,0,0,0-6.48-2.71,61.24,61.24,0,0,0-7.69-2,43.2,43.2,0,0,0-8-.77,47.69,47.69,0,0,0-14.56,2.12A33.1,33.1,0,0,0,88,67.85a27.63,27.63,0,0,0-7.35,9.77,31.16,31.16,0,0,0-2.61,13,30.26,30.26,0,0,0,2.52,12.86,31.47,31.47,0,0,0,6.62,9.42,45.75,45.75,0,0,0,9.33,7q5.22,3,10.69,5.56t10.68,5.13a56.2,56.2,0,0,1,9.33,5.7,26.47,26.47,0,0,1,6.63,7.3,19,19,0,0,1,2.51,10,24.12,24.12,0,0,1-1.94,9.9s0,.08,0,.11a20.49,20.49,0,0,1-5.56,7.4l-.46.37a32.68,32.68,0,0,1-8.05,4.22,34.09,34.09,0,0,1-8.12,1.69A44.92,44.92,0,0,1,97.4,176a70.29,70.29,0,1,1,89.07-67.74A85.14,85.14,0,0,1,183.94,127s-4.89,17.53-18.06,31l-.48.47c-1,.95-1.93,1.85-2.93,2.74l-.57.5h0l-.15.13c-.63.55-1.26,1.11-1.91,1.64a2.55,2.55,0,0,0-.31.58,1.47,1.47,0,0,0,0,1.09,2.75,2.75,0,0,0,.82,1,7.73,7.73,0,0,0,1.51,1A15.85,15.85,0,0,0,164,168a20.2,20.2,0,0,0,2.18.63,8.88,8.88,0,0,0,1.6.24,5.51,5.51,0,0,0,1.2-.06,7.92,7.92,0,0,0,1.65-.66,12,12,0,0,0,2.29-1.7c.78-.77,1.55-1.58,2.3-2.39C175.56,163.72,175.87,163.37,176.18,163ZM126.1,177.87l.22,0Zm9.29-2c.74-.22,1.49-.45,2.22-.69C136.88,175.44,136.13,175.67,135.39,175.89Zm-4.78,1.17c-.68.15-1.37.28-2.05.4C129.24,177.34,129.93,177.21,130.61,177.06Zm3.47-.82c-.69.18-1.38.36-2.07.52C132.7,176.6,133.39,176.42,134.08,176.24Zm-11.1,2-.24,0Zm-3.29.24-.4,0Zm-6.07,0-.57,0Zm-2.63-.14-.45,0Z"/><path class="cls-2" d="M160.1,163.18l0,0Z"/></svg>