<?xml version="1.0" encoding="utf-8"?>
<!-- Generator: Adobe Illustrator 25.2.2, SVG Export Plug-In . SVG Version: 6.00 Build 0)  -->
<svg version="1.1" id="Laag_1" xmlns="http://www.w3.org/2000/svg" xmlns:xlink="http://www.w3.org/1999/xlink" x="0px" y="0px"
	 viewBox="0 0 465.8 88.5" style="enable-background:new 0 0 465.8 88.5;" xml:space="preserve">
<style type="text/css">
	.st0{fill:#D9A91A;}
	.st1{fill:#FFFFFF;}
</style>
<g>
	<ellipse class="st0" cx="44.1" cy="44.9" rx="44.1" ry="43.6"/>
	<path class="st1" d="M133.8,55.1c0,1.5-0.3,3-0.9,4.4c-0.6,1.3-1.5,2.4-2.6,3.3c-1.2,0.9-2.5,1.6-4,2.1c-1.7,0.5-3.4,0.7-5.2,0.7
		c-2.1,0-4.2-0.3-6.2-1c-0.7-0.2-1.5-0.6-2.2-0.9c-0.5-0.2-0.9-0.5-1.3-0.9c-0.3-0.3-0.5-0.6-0.6-1c-0.1-0.5-0.2-1-0.2-1.5
		c0-0.3,0-0.6,0.1-0.9c0-0.2,0.1-0.4,0.2-0.6c0.1-0.2,0.2-0.3,0.3-0.4c0.1-0.1,0.3-0.1,0.4-0.1c0.4,0.1,0.9,0.3,1.2,0.5
		c0.6,0.4,1.3,0.8,2,1.2c0.9,0.5,1.8,0.9,2.8,1.2c2.3,0.7,4.7,0.7,7,0.2c0.9-0.2,1.7-0.6,2.5-1.2c0.7-0.5,1.3-1.2,1.6-1.9
		c0.4-0.9,0.6-1.8,0.6-2.8c0-1-0.2-1.9-0.8-2.7c-0.5-0.8-1.2-1.4-2-1.9c-0.9-0.6-1.8-1.1-2.8-1.4l-3.2-1.2c-1.1-0.4-2.2-0.9-3.2-1.5
		c-1-0.5-2-1.2-2.8-1.9c-0.8-0.8-1.5-1.7-2-2.7c-0.5-1.2-0.8-2.5-0.8-3.8c0-1.2,0.2-2.4,0.7-3.5c0.5-1.2,1.2-2.2,2.1-3.1
		c1-1,2.3-1.7,3.6-2.2c1.7-0.6,3.5-0.9,5.2-0.8c0.9,0,1.7,0.1,2.6,0.2c0.8,0.1,1.5,0.3,2.3,0.5c0.6,0.2,1.2,0.4,1.8,0.7
		c0.4,0.2,0.8,0.4,1.1,0.7c0.2,0.1,0.4,0.3,0.5,0.5c0.1,0.1,0.1,0.3,0.2,0.4c0,0.2,0.1,0.4,0.1,0.5c0,0.3,0,0.5,0,0.8
		c0,0.3,0,0.5-0.1,0.8c0,0.2-0.1,0.4-0.2,0.6c-0.1,0.2-0.2,0.3-0.3,0.4c-0.1,0.1-0.2,0.1-0.4,0.1c-0.3-0.1-0.6-0.2-0.9-0.4
		c-0.5-0.3-1-0.6-1.6-0.9c-0.8-0.4-1.5-0.7-2.3-0.9c-1-0.3-2.1-0.4-3.1-0.4c-1.1,0-2.1,0.1-3.1,0.4c-0.8,0.2-1.6,0.6-2.2,1.2
		c-0.5,0.5-0.9,1.1-1.2,1.7c-0.3,0.7-0.4,1.5-0.4,2.2c0,1,0.2,2,0.8,2.8c0.5,0.8,1.2,1.5,2,2c0.9,0.6,1.8,1.1,2.8,1.5
		c1.1,0.4,2.1,0.8,3.2,1.3s2.2,0.9,3.2,1.4c1,0.5,2,1.1,2.8,1.9c0.8,0.7,1.5,1.6,2,2.6C133.6,52.6,133.8,53.8,133.8,55.1z"/>
	<path class="st1" d="M172.9,59.2c0,0.3,0,0.6,0,0.8c0,0.2-0.1,0.4-0.1,0.6c0,0.2-0.1,0.3-0.2,0.5c-0.2,0.3-0.4,0.5-0.6,0.7
		c-0.5,0.5-1.1,0.9-1.6,1.2c-0.8,0.5-1.7,1-2.6,1.3c-1,0.4-2,0.7-3.1,0.9c-1.1,0.2-2.3,0.4-3.4,0.4c-2.2,0-4.3-0.4-6.3-1.2
		c-1.8-0.8-3.4-2-4.6-3.5c-1.3-1.7-2.3-3.7-2.9-5.8c-0.7-2.5-1-5.2-1-7.8c-0.1-2.9,0.3-5.8,1.2-8.5c0.7-2.1,1.8-4.1,3.3-5.8
		c1.3-1.5,3-2.6,4.9-3.3c1.9-0.7,3.9-1.1,6-1.1c2.1,0,4.2,0.4,6.1,1.2c0.8,0.3,1.6,0.7,2.3,1.2c0.5,0.4,1,0.8,1.5,1.2
		c0.2,0.2,0.4,0.5,0.6,0.7c0.1,0.2,0.2,0.4,0.3,0.5c0.1,0.2,0.1,0.4,0.1,0.7c0,0.2,0,0.5,0,0.8c0,0.5-0.1,1.1-0.3,1.5
		c-0.2,0.2-0.4,0.4-0.7,0.4c-0.5-0.1-1-0.3-1.3-0.7c-0.6-0.5-1.3-1-2-1.5c-0.9-0.6-1.8-1.1-2.8-1.5c-1.3-0.5-2.7-0.7-4.1-0.7
		c-3-0.1-5.9,1.3-7.6,3.8c-1.8,2.5-2.7,6.2-2.7,10.9c0,2.1,0.2,4.2,0.7,6.3c0.4,1.6,1.1,3.1,2.1,4.5c0.8,1.2,2,2.1,3.3,2.7
		c2.7,1.1,5.6,1.2,8.4,0.2c1.1-0.4,2.1-1,3-1.6c0.9-0.6,1.6-1.1,2.1-1.6c0.3-0.4,0.8-0.6,1.3-0.7c0.1,0,0.3,0,0.4,0.1
		c0.1,0.1,0.2,0.3,0.3,0.4c0.1,0.2,0.1,0.5,0.2,0.7C172.9,58.5,173,58.8,172.9,59.2z"/>
	<path class="st1" d="M206.4,31.7c0,0.4,0,0.7,0,1c0,0.2-0.1,0.4-0.1,0.6c0,0.1-0.1,0.3-0.2,0.4c-0.1,0.1-0.2,0.1-0.4,0.1
		c-0.3,0-0.5-0.1-0.8-0.2l-1.1-0.4c-0.4-0.1-0.8-0.2-1.3-0.4c-0.5-0.1-1.1-0.2-1.6-0.2c-0.7,0-1.4,0.2-2,0.4
		c-0.8,0.4-1.4,0.8-2.1,1.4c-0.8,0.8-1.6,1.6-2.3,2.5c-0.8,1.1-1.7,2.3-2.6,3.9v23.2c0,0.1,0,0.3-0.1,0.4c-0.1,0.1-0.2,0.2-0.4,0.3
		c-0.2,0.1-0.4,0.2-0.7,0.2c-0.4,0-0.8,0.1-1.1,0c-0.3,0-0.7,0-1,0c-0.2,0-0.5-0.1-0.7-0.2c-0.2-0.1-0.3-0.2-0.4-0.3
		c-0.1-0.1-0.1-0.3-0.1-0.4V30c0-0.1,0-0.3,0.1-0.4c0.1-0.1,0.2-0.3,0.4-0.3c0.2-0.1,0.4-0.2,0.7-0.2c0.3,0,0.7-0.1,1-0.1
		c0.4,0,0.7,0,1.1,0.1c0.2,0,0.4,0.1,0.6,0.2c0.1,0.1,0.3,0.2,0.3,0.3c0.1,0.1,0.1,0.3,0.1,0.4v5.4c0.8-1.2,1.7-2.4,2.7-3.5
		c0.7-0.8,1.5-1.5,2.4-2.1c0.7-0.5,1.4-0.8,2.2-1c0.7-0.2,1.5-0.3,2.2-0.3c0.3,0,0.7,0,1.1,0.1c0.5,0,0.9,0.1,1.4,0.2
		c0.4,0.1,0.9,0.2,1.3,0.4c0.3,0.1,0.6,0.2,0.8,0.4c0.1,0.1,0.2,0.2,0.3,0.3c0.1,0.1,0.1,0.2,0.1,0.3c0,0.2,0.1,0.4,0.1,0.6
		C206.4,31,206.4,31.3,206.4,31.7z"/>
	<path class="st1" d="M224,64.2c0,0.1,0,0.3-0.1,0.4c-0.1,0.1-0.2,0.2-0.4,0.3c-0.2,0.1-0.4,0.2-0.7,0.2c-0.4,0.1-0.7,0.1-1.1,0.1
		c-0.4,0-0.7,0-1.1-0.1c-0.2,0-0.5-0.1-0.7-0.2c-0.2-0.1-0.3-0.2-0.4-0.3c-0.1-0.1-0.1-0.3-0.1-0.4V30c0-0.1,0-0.3,0.1-0.4
		c0.1-0.1,0.2-0.3,0.4-0.3c0.2-0.1,0.5-0.2,0.7-0.2c0.4,0,0.7-0.1,1.1-0.1c0.4,0,0.7,0,1.1,0.1c0.2,0,0.5,0.1,0.7,0.2
		c0.2,0.1,0.3,0.2,0.4,0.3c0.1,0.1,0.1,0.3,0.1,0.4V64.2z"/>
	<path class="st1" d="M271.9,46.6c0,2.7-0.3,5.3-1,7.9c-0.5,2.2-1.5,4.2-2.8,6c-1.2,1.6-2.8,2.9-4.6,3.8c-2,0.9-4.1,1.4-6.3,1.3
		c-1,0-1.9-0.1-2.8-0.3c-0.9-0.2-1.8-0.6-2.6-1c-0.9-0.5-1.7-1.1-2.5-1.7c-0.9-0.8-1.8-1.6-2.6-2.5v17.6c0,0.1,0,0.3-0.1,0.4
		c-0.1,0.1-0.2,0.2-0.4,0.3c-0.2,0.1-0.4,0.2-0.7,0.2c-0.4,0-0.7,0-1.1,0c-0.4,0-0.7,0-1.1,0c-0.2,0-0.5-0.1-0.7-0.2
		c-0.2-0.1-0.3-0.2-0.4-0.3c-0.1-0.1-0.1-0.3-0.1-0.4V30c0-0.2,0-0.3,0.1-0.5c0.1-0.1,0.2-0.2,0.3-0.3c0.2-0.1,0.4-0.1,0.6-0.2
		c0.3,0,0.7-0.1,1-0.1c0.3,0,0.6,0,0.9,0.1c0.2,0,0.4,0.1,0.6,0.2c0.2,0.1,0.3,0.2,0.4,0.3c0.1,0.1,0.1,0.3,0.1,0.5v5
		c0.9-1,1.9-1.9,3-2.8c0.9-0.8,1.9-1.4,2.9-2c0.9-0.5,1.9-0.9,3-1.2c1.1-0.3,2.1-0.4,3.2-0.4c2.2-0.1,4.4,0.4,6.3,1.4
		c1.7,0.9,3.2,2.3,4.2,3.9c1.1,1.7,1.9,3.7,2.4,5.7C271.6,41.9,271.9,44.2,271.9,46.6z M267.2,47.3c0-1.9-0.2-3.7-0.5-5.5
		c-0.3-1.7-0.8-3.3-1.5-4.8c-0.7-1.3-1.7-2.5-2.9-3.3c-1.3-0.9-2.9-1.3-4.5-1.2c-0.9,0-1.8,0.1-2.7,0.4c-0.9,0.3-1.8,0.7-2.7,1.2
		c-1,0.7-2,1.4-2.9,2.2c-1.1,1.1-2.1,2.2-3.1,3.4v14.9c1.6,2,3.4,3.8,5.4,5.3c1.6,1.2,3.5,1.8,5.4,1.8c1.6,0,3.2-0.4,4.5-1.3
		c1.3-0.9,2.3-2,3.1-3.3c0.8-1.5,1.4-3,1.7-4.7C267,50.8,267.2,49.1,267.2,47.3z"/>
	<path class="st1" d="M303.8,62.2c0,0.4,0,0.9-0.1,1.3c-0.1,0.3-0.2,0.6-0.4,0.8c-0.2,0.2-0.5,0.4-0.8,0.5c-0.4,0.2-0.8,0.3-1.3,0.4
		c-0.5,0.1-1,0.2-1.5,0.3c-0.5,0.1-1,0.1-1.5,0.1c-1.5,0-2.9-0.2-4.3-0.7c-1.1-0.4-2.1-1.1-2.9-2.1c-0.8-1-1.4-2.2-1.6-3.5
		c-0.4-1.6-0.5-3.3-0.5-5V33h-5.1c-0.3,0-0.7-0.2-0.8-0.5c-0.2-0.4-0.3-0.9-0.3-1.4c0-0.3,0-0.6,0.1-0.8c0-0.2,0.1-0.4,0.2-0.6
		c0.1-0.1,0.2-0.3,0.4-0.4c0.1-0.1,0.3-0.1,0.5-0.2h5.1v-8.3c0-0.1,0-0.3,0.1-0.4c0.1-0.1,0.2-0.3,0.4-0.3c0.2-0.1,0.5-0.2,0.7-0.2
		c0.4,0,0.7-0.1,1.1-0.1c0.4,0,0.7,0,1.1,0.1c0.2,0,0.5,0.1,0.7,0.2c0.1,0.1,0.3,0.2,0.4,0.3c0.1,0.1,0.1,0.3,0.1,0.4v8.3h9.4
		c0.2,0,0.3,0,0.5,0.1c0.1,0.1,0.3,0.2,0.4,0.4c0.1,0.2,0.2,0.4,0.2,0.6c0.1,0.3,0.1,0.6,0.1,0.8c0,0.5-0.1,1-0.3,1.4
		c-0.2,0.3-0.5,0.5-0.8,0.5h-9.5v20.7c-0.1,2,0.3,4.1,1.1,5.9c0.8,1.4,2.4,2.2,4.1,2c0.6,0,1.1-0.1,1.6-0.2c0.4-0.1,0.9-0.3,1.3-0.4
		c0.4-0.1,0.7-0.3,1-0.4c0.2-0.1,0.5-0.2,0.7-0.2c0.1,0,0.2,0,0.3,0.1c0.1,0.1,0.2,0.2,0.2,0.3c0.1,0.2,0.1,0.3,0.1,0.5
		C303.8,61.6,303.8,61.9,303.8,62.2z"/>
	<path class="st1" d="M341,64.2c0,0.2-0.1,0.4-0.2,0.6c-0.2,0.2-0.4,0.3-0.6,0.3c-0.4,0.1-0.7,0.1-1.1,0.1c-0.4,0-0.7,0-1.1-0.1
		c-0.3,0-0.5-0.2-0.7-0.3c-0.2-0.1-0.3-0.4-0.2-0.6v-3.8c-1.4,1.6-3.2,2.9-5.1,3.9c-1.8,0.9-3.8,1.4-5.8,1.4c-1.6,0-3.3-0.2-4.8-0.7
		c-1.3-0.4-2.6-1.1-3.6-2c-1-0.9-1.8-1.9-2.3-3.2c-0.5-1.3-0.8-2.7-0.8-4.2c0-1.7,0.4-3.4,1.2-4.9c0.8-1.4,1.9-2.6,3.3-3.5
		c1.6-1,3.3-1.7,5.2-2.1c2.2-0.5,4.5-0.7,6.7-0.7h5.4v-3c0-1.3-0.1-2.6-0.5-3.9c-0.3-1-0.7-2-1.4-2.8c-0.7-0.8-1.6-1.4-2.6-1.7
		c-1.3-0.4-2.6-0.6-4-0.6c-1.4,0-2.8,0.2-4.1,0.5c-1.1,0.3-2.2,0.7-3.2,1.2c-0.9,0.5-1.7,0.9-2.2,1.2c-0.4,0.3-0.8,0.5-1.3,0.5
		c-0.1,0-0.3,0-0.4-0.1c-0.1-0.1-0.3-0.2-0.3-0.3c-0.1-0.2-0.2-0.3-0.2-0.5c0-0.3-0.1-0.5-0.1-0.8c0-0.4,0-0.9,0.1-1.3
		c0.1-0.4,0.3-0.7,0.6-0.9c0.5-0.4,1.1-0.8,1.7-1.1c0.9-0.5,1.8-0.9,2.8-1.2c1.1-0.4,2.2-0.7,3.4-0.9c1.2-0.2,2.4-0.3,3.6-0.3
		c2,0,4,0.2,5.9,0.8c1.5,0.5,2.8,1.3,3.9,2.4c1,1.1,1.8,2.5,2.1,3.9c0.5,1.7,0.7,3.5,0.6,5.3L341,64.2z M336.5,48.1h-6.2
		c-1.6,0-3.2,0.1-4.8,0.5c-1.2,0.3-2.4,0.7-3.4,1.4c-0.8,0.6-1.5,1.4-2,2.3c-0.5,0.9-0.7,2-0.7,3c-0.1,1.8,0.6,3.5,1.9,4.7
		c1.5,1.2,3.4,1.9,5.3,1.8c1.8,0,3.5-0.5,5-1.4c1.8-1.1,3.5-2.6,4.9-4.2V48.1z"/>
	<path class="st1" d="M363.4,64.2c0,0.1,0,0.3-0.1,0.4c-0.1,0.1-0.2,0.2-0.4,0.3c-0.2,0.1-0.4,0.2-0.7,0.2c-0.4,0.1-0.7,0.1-1.1,0.1
		c-0.4,0-0.7,0-1.1-0.1c-0.2,0-0.5-0.1-0.7-0.2c-0.2-0.1-0.3-0.2-0.4-0.3c-0.1-0.1-0.1-0.3-0.1-0.4v-51c0-0.1,0-0.3,0.1-0.4
		c0.1-0.1,0.2-0.3,0.4-0.3c0.2-0.1,0.5-0.2,0.7-0.2c0.4,0,0.7-0.1,1.1-0.1c0.4,0,0.7,0,1.1,0.1c0.2,0,0.5,0.1,0.7,0.2
		c0.1,0.1,0.3,0.2,0.4,0.3c0.1,0.1,0.1,0.3,0.1,0.4V64.2z"/>
	<path class="st1" d="M385.9,64.2c0,0.1,0,0.3-0.1,0.4c-0.1,0.1-0.2,0.2-0.4,0.3c-0.2,0.1-0.5,0.2-0.7,0.2c-0.4,0-0.8,0.1-1.1,0
		c-0.4,0-0.7,0-1.1-0.1c-0.2,0-0.5-0.1-0.7-0.2c-0.2-0.1-0.3-0.2-0.4-0.3c-0.1-0.1-0.1-0.3-0.1-0.4V30c0-0.1,0-0.3,0.1-0.4
		c0.1-0.1,0.2-0.3,0.4-0.3c0.2-0.1,0.5-0.2,0.7-0.2c0.4,0,0.7-0.1,1.1-0.1c0.4,0,0.7,0,1.1,0.1c0.2,0,0.5,0.1,0.7,0.2
		c0.1,0.1,0.3,0.2,0.4,0.3c0.1,0.1,0.1,0.3,0.1,0.4L385.9,64.2z"/>
	<path class="st1" d="M424.6,63c0,0.3,0,0.6-0.1,0.9c0,0.2-0.1,0.4-0.2,0.6c-0.1,0.2-0.2,0.3-0.4,0.4c-0.2,0.1-0.3,0.1-0.5,0.1H403
		c-0.4,0-0.8-0.2-1.1-0.4c-0.4-0.4-0.5-1-0.5-1.5v-1.1c0-0.3,0-0.5,0.1-0.8c0.1-0.2,0.1-0.5,0.2-0.7c0.1-0.3,0.2-0.6,0.4-0.8
		c0.2-0.3,0.4-0.6,0.6-1l16.2-25.5H403c-0.4,0-0.7-0.2-0.9-0.5c-0.3-0.5-0.4-1-0.3-1.5c0-0.3,0-0.6,0.1-0.9c0.1-0.2,0.1-0.4,0.2-0.6
		c0.1-0.2,0.2-0.3,0.4-0.4c0.2-0.1,0.3-0.1,0.5-0.1h18.9c0.2,0,0.4,0,0.6,0.1c0.2,0.1,0.4,0.2,0.5,0.3c0.1,0.2,0.3,0.4,0.3,0.6
		c0.1,0.3,0.1,0.6,0.1,0.9v0.9c0,0.3,0,0.5-0.1,0.8c0,0.3-0.1,0.5-0.2,0.8c-0.1,0.3-0.3,0.6-0.4,0.9c-0.2,0.3-0.4,0.7-0.6,1.1
		L406,61h17.4c0.2,0,0.3,0,0.5,0.1c0.2,0.1,0.3,0.2,0.4,0.3c0.1,0.2,0.2,0.4,0.2,0.6C424.6,62.4,424.6,62.7,424.6,63z"/>
	<path class="st1" d="M465.8,45.3c0.1,0.7-0.2,1.4-0.7,1.9c-0.4,0.3-0.9,0.5-1.4,0.5h-23.3c0,1.9,0.2,3.9,0.6,5.8
		c0.4,1.6,1.1,3.1,2.1,4.4c1,1.2,2.3,2.2,3.7,2.8c1.8,0.7,3.7,1.1,5.7,1c1.4,0,2.9-0.1,4.3-0.4c1.1-0.2,2.2-0.5,3.3-0.9
		c0.9-0.3,1.7-0.7,2.3-0.9c0.4-0.2,0.8-0.4,1.3-0.4c0.1,0,0.3,0,0.4,0.1c0.1,0.1,0.2,0.2,0.3,0.4c0.1,0.2,0.1,0.4,0.2,0.6
		c0,0.3,0.1,0.6,0.1,0.9c0,0.2,0,0.3,0,0.5c0,0.2-0.1,0.3-0.1,0.5c0,0.1-0.1,0.3-0.2,0.4c-0.1,0.1-0.2,0.3-0.3,0.4
		c-0.4,0.3-0.8,0.5-1.2,0.7c-0.8,0.4-1.7,0.7-2.6,1c-1.2,0.3-2.4,0.6-3.7,0.8c-1.5,0.3-3,0.4-4.5,0.4c-2.4,0-4.8-0.4-7-1.2
		c-2-0.7-3.7-2-5.1-3.5c-1.5-1.7-2.6-3.7-3.2-5.8c-0.8-2.6-1.1-5.3-1.1-8c-0.1-2.6,0.3-5.3,1.1-7.8c0.7-2.1,1.8-4.1,3.2-5.8
		c1.4-1.6,3.1-2.8,5-3.7c2.1-0.9,4.3-1.3,6.5-1.3c2.3-0.1,4.5,0.4,6.6,1.3c1.7,0.8,3.3,2,4.5,3.5c1.2,1.5,2.1,3.2,2.6,5
		c0.5,2,0.8,4,0.8,6L465.8,45.3z M461.2,44c0.1-3.6-0.8-6.5-2.5-8.5s-4.3-3.1-7.6-3.1c-3-0.1-5.9,1.2-7.8,3.5
		c-0.9,1.1-1.6,2.3-2.1,3.7c-0.5,1.4-0.8,2.9-0.8,4.4L461.2,44z"/>
	<path class="st1" d="M62.6,66.8l-0.7,0.6C62,67.3,62.6,66.9,62.6,66.8z"/>
	<path class="st1" d="M61.9,67.4L61.9,67.4z"/>
	<path class="st1" d="M68.4,67.4l0.2-0.2c12.2-13.5,11.1-34.4-2.4-46.6S31.7,9.5,19.5,23S8.4,57.4,22,69.6c2.5,2.3,5.4,4.2,8.5,5.6
		l-1-0.5c0.9,0.5,1.9,0.9,2.8,1.3c1.3,0.5,2.5,0.8,3.8,1.1c1.5,0.3,3,0.5,4.6,0.4c2.2,0,4.5-0.3,6.6-1c1.9-0.6,3.7-1.5,5.2-2.8
		c0.7-0.6,1.3-1.3,1.9-2c-0.4,0.2-0.9,0.3-1.3,0.5c0.4-0.2,0.9-0.3,1.3-0.5c0.6-0.8,1.1-1.6,1.6-2.5c0.2-0.4,0.4-0.9,0.6-1.3
		c0.5-1.5,0.7-3.1,0.7-4.7c0.1-1.8-0.3-3.5-1-5.2c-0.7-1.4-1.6-2.7-2.8-3.8c-1.1-1.1-2.4-2-3.8-2.8c-1.4-0.8-2.9-1.5-4.4-2.2
		c-1.5-0.7-2.9-1.4-4.3-2.1c-1.4-0.6-2.6-1.4-3.8-2.3c-1.1-0.8-2-1.8-2.7-3c-0.7-1.2-1-2.6-1-4c0-1,0.2-2.1,0.6-3.1
		c0.4-1,1-1.8,1.7-2.5c0.8-0.8,1.8-1.4,2.9-1.7c1.3-0.4,2.6-0.6,4-0.6c1.4,0,2.8,0.2,4.2,0.6c1.1,0.3,2.2,0.7,3.2,1.3
		c0.9,0.5,1.6,0.9,2.2,1.3c0.4,0.3,0.8,0.5,1.3,0.6c0.2,0,0.3-0.1,0.4-0.2c0.1-0.1,0.2-0.3,0.3-0.5c0.1-0.2,0.1-0.5,0.2-0.7
		c0-0.3,0.1-0.6,0.1-0.9c0-0.4,0-0.7,0-0.9c0-0.2-0.1-0.4-0.1-0.7c0-0.2-0.1-0.3-0.2-0.5c-0.1-0.2-0.3-0.4-0.5-0.5
		c-0.5-0.4-1-0.7-1.5-1c-0.8-0.4-1.7-0.8-2.6-1.1c-1-0.3-2.1-0.6-3.1-0.8c-1.1-0.2-2.2-0.3-3.2-0.3c-2,0-4,0.3-5.9,0.9
		c-1.7,0.5-3.3,1.4-4.6,2.5c-1.3,1.1-2.3,2.5-3,4c-0.7,1.7-1,3.4-1,5.2c-0.1,1.8,0.3,3.6,1,5.2c0.6,1.4,1.6,2.7,2.7,3.8
		c1.1,1.1,2.4,2.1,3.8,2.8c1.4,0.8,2.9,1.6,4.3,2.2c1.5,0.7,2.9,1.4,4.3,2.1c1.3,0.6,2.6,1.4,3.8,2.3c1.1,0.8,2,1.8,2.7,3
		c0.7,1.2,1,2.6,1,4c0,1.4-0.2,2.7-0.8,4l0,0c-0.5,1.2-1.3,2.2-2.2,3L49,70.7c-1,0.7-2.1,1.3-3.3,1.7c-1.1,0.4-2.2,0.6-3.3,0.7
		c-2,0.2-4,0-6-0.5c-15.2-4.2-24-20-19.8-35.1s20-24,35.1-19.8c12.3,3.4,20.9,14.7,20.9,27.5c0,2.6-0.4,5.1-1,7.6
		c-1.5,4.7-4,9-7.3,12.6l-0.2,0.2c-0.4,0.4-0.8,0.8-1.2,1.1l-0.2,0.2l0,0h-0.1c-0.2,0.2-0.5,0.4-0.8,0.7c-0.1,0.1-0.1,0.2-0.1,0.2
		c-0.1,0.1-0.1,0.3,0,0.4c0.1,0.2,0.2,0.3,0.3,0.4c0.2,0.2,0.4,0.3,0.6,0.4c0.3,0.1,0.6,0.3,0.9,0.3c0.3,0.1,0.6,0.2,0.9,0.3
		c0.2,0.1,0.4,0.1,0.7,0.1c0.2,0,0.3,0,0.5,0c0.2-0.1,0.5-0.2,0.7-0.3c0.3-0.2,0.7-0.4,0.9-0.7c0.3-0.3,0.6-0.6,0.9-1
		C68.2,67.7,68.3,67.5,68.4,67.4z M48.1,73.4L48.1,73.4z M51.9,72.6l0.9-0.3L51.9,72.6z M49.9,73.1l-0.8,0.2L49.9,73.1z M51.3,72.7
		l-0.8,0.2L51.3,72.7z M46.8,73.6L46.8,73.6z M45.5,73.6L45.5,73.6z M43,73.6L43,73.6z M42,73.6L42,73.6z"/>
	<path class="st1" d="M61.9,67.5L61.9,67.5z"/>
</g>
</svg>
